<svg
  xmlns="http://www.w3.org/2000/svg"
  width="30"
  height="29"
  viewBox="0 0 30 29"
  fill="none"
>
  <path
    d="M14.8552 29C23.0116 29 29.6236 22.5081 29.6236 14.5C29.6236 6.49186 23.0116 0 14.8552 0C6.6989 0 0.0869141 6.49186 0.0869141 14.5C0.0869141 22.5081 6.6989 29 14.8552 29Z"
    fill="#0098EA"
  />
  <path
    d="M19.8982 8.0929H9.8126C7.95823 8.0929 6.78293 10.0569 7.71582 11.6446L13.9402 22.2372C14.3464 22.9289 15.3643 22.9289 15.7705 22.2372L21.9962 11.6446C22.9279 10.0594 21.7525 8.0929 19.8994 8.0929H19.8982ZM13.9352 19.0606L12.5796 16.4848L9.30874 10.7411C9.09296 10.3734 9.35948 9.90234 9.81133 9.90234H13.9339V19.0619L13.9352 19.0606ZM20.3995 10.7398L17.1299 16.486L15.7743 19.0606V9.9011H19.8969C20.3487 9.9011 20.6153 10.3722 20.3995 10.7398Z"
    fill="white"
  />
</svg>
